solid
 facet normal -1.000000e+00 -0.000000e+00 -0.000000e+00
   outer loop
     vertex -2.500000e+00  1.250000e+00  7.000000e-01
     vertex -2.500000e+00  1.250000e+00  0.000000e+00
     vertex -2.500000e+00 -1.250000e+00  7.000000e-01
   endloop
 endfacet
 facet normal -1.000000e+00  0.000000e+00  0.000000e+00
   outer loop
     vertex -2.500000e+00  1.250000e+00  0.000000e+00
     vertex -2.500000e+00 -1.250000e+00  0.000000e+00
     vertex -2.500000e+00 -1.250000e+00  7.000000e-01
   endloop
 endfacet
 facet normal  1.000000e+00 -0.000000e+00  0.000000e+00
   outer loop
     vertex -1.850000e+00 -1.250000e+00  7.000000e-01
     vertex -1.850000e+00  1.250000e+00  0.000000e+00
     vertex -1.850000e+00  1.250000e+00  7.000000e-01
   endloop
 endfacet
 facet normal  1.000000e+00 -0.000000e+00  0.000000e+00
   outer loop
     vertex -1.850000e+00 -1.250000e+00  7.000000e-01
     vertex -1.850000e+00 -1.250000e+00  0.000000e+00
     vertex -1.850000e+00  1.250000e+00  0.000000e+00
   endloop
 endfacet
 facet normal  0.000000e+00 -1.000000e+00  0.000000e+00
   outer loop
     vertex -2.500000e+00 -1.250000e+00  0.000000e+00
     vertex -1.850000e+00 -1.250000e+00  0.000000e+00
     vertex -1.850000e+00 -1.250000e+00  7.000000e-01
   endloop
 endfacet
 facet normal  0.000000e+00 -1.000000e+00  0.000000e+00
   outer loop
     vertex -2.500000e+00 -1.250000e+00  7.000000e-01
     vertex -2.500000e+00 -1.250000e+00  0.000000e+00
     vertex -1.850000e+00 -1.250000e+00  7.000000e-01
   endloop
 endfacet
 facet normal  0.000000e+00  1.000000e+00  0.000000e+00
   outer loop
     vertex -1.850000e+00  1.250000e+00  7.000000e-01
     vertex -1.850000e+00  1.250000e+00  0.000000e+00
     vertex -2.500000e+00  1.250000e+00  0.000000e+00
   endloop
 endfacet
 facet normal  0.000000e+00  1.000000e+00 -0.000000e+00
   outer loop
     vertex -1.850000e+00  1.250000e+00  7.000000e-01
     vertex -2.500000e+00  1.250000e+00  0.000000e+00
     vertex -2.500000e+00  1.250000e+00  7.000000e-01
   endloop
 endfacet
 facet normal  0.000000e+00  0.000000e+00 -1.000000e+00
   outer loop
     vertex -1.850000e+00 -1.250000e+00  0.000000e+00
     vertex -2.500000e+00 -1.250000e+00  0.000000e+00
     vertex -2.500000e+00  1.250000e+00  0.000000e+00
   endloop
 endfacet
 facet normal  0.000000e+00  0.000000e+00 -1.000000e+00
   outer loop
     vertex -1.850000e+00 -1.250000e+00  0.000000e+00
     vertex -2.500000e+00  1.250000e+00  0.000000e+00
     vertex -1.850000e+00  1.250000e+00  0.000000e+00
   endloop
 endfacet
 facet normal -0.000000e+00  0.000000e+00  1.000000e+00
   outer loop
     vertex -2.500000e+00  1.250000e+00  7.000000e-01
     vertex -2.500000e+00 -1.250000e+00  7.000000e-01
     vertex -1.850000e+00 -1.250000e+00  7.000000e-01
   endloop
 endfacet
 facet normal  0.000000e+00  0.000000e+00  1.000000e+00
   outer loop
     vertex -1.850000e+00  1.250000e+00  7.000000e-01
     vertex -2.500000e+00  1.250000e+00  7.000000e-01
     vertex -1.850000e+00 -1.250000e+00  7.000000e-01
   endloop
 endfacet
 facet normal -1.000000e+00 -0.000000e+00 -0.000000e+00
   outer loop
     vertex  1.850000e+00  1.250000e+00  7.000000e-01
     vertex  1.850000e+00  1.250000e+00  0.000000e+00
     vertex  1.850000e+00 -1.250000e+00  7.000000e-01
   endloop
 endfacet
 facet normal -1.000000e+00  0.000000e+00  0.000000e+00
   outer loop
     vertex  1.850000e+00  1.250000e+00  0.000000e+00
     vertex  1.850000e+00 -1.250000e+00  0.000000e+00
     vertex  1.850000e+00 -1.250000e+00  7.000000e-01
   endloop
 endfacet
 facet normal  1.000000e+00 -0.000000e+00  0.000000e+00
   outer loop
     vertex  2.500000e+00 -1.250000e+00  7.000000e-01
     vertex  2.500000e+00  1.250000e+00  0.000000e+00
     vertex  2.500000e+00  1.250000e+00  7.000000e-01
   endloop
 endfacet
 facet normal  1.000000e+00 -0.000000e+00  0.000000e+00
   outer loop
     vertex  2.500000e+00 -1.250000e+00  7.000000e-01
     vertex  2.500000e+00 -1.250000e+00  0.000000e+00
     vertex  2.500000e+00  1.250000e+00  0.000000e+00
   endloop
 endfacet
 facet normal  0.000000e+00 -1.000000e+00  0.000000e+00
   outer loop
     vertex  1.850000e+00 -1.250000e+00  0.000000e+00
     vertex  2.500000e+00 -1.250000e+00  0.000000e+00
     vertex  2.500000e+00 -1.250000e+00  7.000000e-01
   endloop
 endfacet
 facet normal  0.000000e+00 -1.000000e+00  0.000000e+00
   outer loop
     vertex  1.850000e+00 -1.250000e+00  7.000000e-01
     vertex  1.850000e+00 -1.250000e+00  0.000000e+00
     vertex  2.500000e+00 -1.250000e+00  7.000000e-01
   endloop
 endfacet
 facet normal  0.000000e+00  1.000000e+00  0.000000e+00
   outer loop
     vertex  2.500000e+00  1.250000e+00  7.000000e-01
     vertex  2.500000e+00  1.250000e+00  0.000000e+00
     vertex  1.850000e+00  1.250000e+00  0.000000e+00
   endloop
 endfacet
 facet normal  0.000000e+00  1.000000e+00 -0.000000e+00
   outer loop
     vertex  2.500000e+00  1.250000e+00  7.000000e-01
     vertex  1.850000e+00  1.250000e+00  0.000000e+00
     vertex  1.850000e+00  1.250000e+00  7.000000e-01
   endloop
 endfacet
 facet normal  0.000000e+00  0.000000e+00 -1.000000e+00
   outer loop
     vertex  2.500000e+00 -1.250000e+00  0.000000e+00
     vertex  1.850000e+00 -1.250000e+00  0.000000e+00
     vertex  1.850000e+00  1.250000e+00  0.000000e+00
   endloop
 endfacet
 facet normal  0.000000e+00  0.000000e+00 -1.000000e+00
   outer loop
     vertex  2.500000e+00 -1.250000e+00  0.000000e+00
     vertex  1.850000e+00  1.250000e+00  0.000000e+00
     vertex  2.500000e+00  1.250000e+00  0.000000e+00
   endloop
 endfacet
 facet normal -0.000000e+00  0.000000e+00  1.000000e+00
   outer loop
     vertex  1.850000e+00  1.250000e+00  7.000000e-01
     vertex  1.850000e+00 -1.250000e+00  7.000000e-01
     vertex  2.500000e+00 -1.250000e+00  7.000000e-01
   endloop
 endfacet
 facet normal  0.000000e+00  0.000000e+00  1.000000e+00
   outer loop
     vertex  2.500000e+00  1.250000e+00  7.000000e-01
     vertex  1.850000e+00  1.250000e+00  7.000000e-01
     vertex  2.500000e+00 -1.250000e+00  7.000000e-01
   endloop
 endfacet
 facet normal -1.000000e+00 -0.000000e+00 -0.000000e+00
   outer loop
     vertex -1.850000e+00  1.225000e+00  6.930000e-01
     vertex -1.850000e+00  1.225000e+00  7.000000e-03
     vertex -1.850000e+00 -1.225000e+00  6.930000e-01
   endloop
 endfacet
 facet normal -1.000000e+00  0.000000e+00  0.000000e+00
   outer loop
     vertex -1.850000e+00  1.225000e+00  7.000000e-03
     vertex -1.850000e+00 -1.225000e+00  7.000000e-03
     vertex -1.850000e+00 -1.225000e+00  6.930000e-01
   endloop
 endfacet
 facet normal  1.000000e+00 -0.000000e+00  0.000000e+00
   outer loop
     vertex  1.850000e+00 -1.225000e+00  6.930000e-01
     vertex  1.850000e+00  1.225000e+00  7.000000e-03
     vertex  1.850000e+00  1.225000e+00  6.930000e-01
   endloop
 endfacet
 facet normal  1.000000e+00 -0.000000e+00  0.000000e+00
   outer loop
     vertex  1.850000e+00 -1.225000e+00  6.930000e-01
     vertex  1.850000e+00 -1.225000e+00  7.000000e-03
     vertex  1.850000e+00  1.225000e+00  7.000000e-03
   endloop
 endfacet
 facet normal  0.000000e+00 -1.000000e+00  0.000000e+00
   outer loop
     vertex -1.850000e+00 -1.225000e+00  7.000000e-03
     vertex  1.850000e+00 -1.225000e+00  7.000000e-03
     vertex  1.850000e+00 -1.225000e+00  6.930000e-01
   endloop
 endfacet
 facet normal  0.000000e+00 -1.000000e+00  0.000000e+00
   outer loop
     vertex -1.850000e+00 -1.225000e+00  6.930000e-01
     vertex -1.850000e+00 -1.225000e+00  7.000000e-03
     vertex  1.850000e+00 -1.225000e+00  6.930000e-01
   endloop
 endfacet
 facet normal  0.000000e+00  1.000000e+00  0.000000e+00
   outer loop
     vertex  1.850000e+00  1.225000e+00  6.930000e-01
     vertex  1.850000e+00  1.225000e+00  7.000000e-03
     vertex -1.850000e+00  1.225000e+00  7.000000e-03
   endloop
 endfacet
 facet normal  0.000000e+00  1.000000e+00 -0.000000e+00
   outer loop
     vertex  1.850000e+00  1.225000e+00  6.930000e-01
     vertex -1.850000e+00  1.225000e+00  7.000000e-03
     vertex -1.850000e+00  1.225000e+00  6.930000e-01
   endloop
 endfacet
 facet normal  0.000000e+00  0.000000e+00 -1.000000e+00
   outer loop
     vertex -1.850000e+00 -1.225000e+00  7.000000e-03
     vertex -1.850000e+00  1.225000e+00  7.000000e-03
     vertex  1.850000e+00 -1.225000e+00  7.000000e-03
   endloop
 endfacet
 facet normal  0.000000e+00  0.000000e+00 -1.000000e+00
   outer loop
     vertex  1.850000e+00 -1.225000e+00  7.000000e-03
     vertex -1.850000e+00  1.225000e+00  7.000000e-03
     vertex  1.850000e+00  1.225000e+00  7.000000e-03
   endloop
 endfacet
 facet normal  0.000000e+00  0.000000e+00  1.000000e+00
   outer loop
     vertex  1.850000e+00 -1.225000e+00  6.930000e-01
     vertex -1.850000e+00  1.225000e+00  6.930000e-01
     vertex -1.850000e+00 -1.225000e+00  6.930000e-01
   endloop
 endfacet
 facet normal  0.000000e+00  0.000000e+00  1.000000e+00
   outer loop
     vertex  1.850000e+00  1.225000e+00  6.930000e-01
     vertex -1.850000e+00  1.225000e+00  6.930000e-01
     vertex  1.850000e+00 -1.225000e+00  6.930000e-01
   endloop
 endfacet
endsolid
